<?xml version="1.0" encoding="UTF-8"?>
<!DOCTYPE svg PUBLIC "-//W3C//DTD SVG 1.1//EN" "http://www.w3.org/Graphics/SVG/1.1/DTD/svg11.dtd">
<svg xmlns="http://www.w3.org/2000/svg" version="1.1" width="466px" height="96px" style="shape-rendering:geometricPrecision; text-rendering:geometricPrecision; image-rendering:optimizeQuality; fill-rule:evenodd; clip-rule:evenodd" xmlns:xlink="http://www.w3.org/1999/xlink">
<g><path style="opacity:1" fill="#fefefe" d="M -0.5,-0.5 C 154.833,-0.5 310.167,-0.5 465.5,-0.5C 465.5,31.5 465.5,63.5 465.5,95.5C 310.167,95.5 154.833,95.5 -0.5,95.5C -0.5,63.5 -0.5,31.5 -0.5,-0.5 Z"/></g>
<g><path style="opacity:1" fill="#556889" d="M 150.5,29.5 C 155.328,29.3852 156.661,31.5519 154.5,36C 149.57,36.427 148.237,34.2604 150.5,29.5 Z"/></g>
<g><path style="opacity:1" fill="#a1abbd" d="M 143.5,31.5 C 141.833,31.5 140.167,31.5 138.5,31.5C 138.82,34.8984 138.487,38.2317 137.5,41.5C 136.893,41.3764 136.56,41.0431 136.5,40.5C 137.479,37.3752 137.813,34.0419 137.5,30.5C 139.735,30.2053 141.735,30.5386 143.5,31.5 Z"/></g>
<g><path style="opacity:1" fill="#465b7f" d="M 143.5,31.5 C 143.5,41.5 143.5,51.5 143.5,61.5C 141.179,61.7711 139.179,61.1045 137.5,59.5C 127.341,64.0913 121.675,60.9246 120.5,50C 121.884,40.4676 127.217,37.3009 136.5,40.5C 136.56,41.0431 136.893,41.3764 137.5,41.5C 138.487,38.2317 138.82,34.8984 138.5,31.5C 140.167,31.5 141.833,31.5 143.5,31.5 Z"/></g>
<g><path style="opacity:1" fill="#b7bfcd" d="M 296.5,31.5 C 294.833,31.5 293.167,31.5 291.5,31.5C 291.5,41.5 291.5,51.5 291.5,61.5C 290.506,51.3468 290.172,41.0135 290.5,30.5C 292.735,30.2053 294.735,30.5386 296.5,31.5 Z"/></g>
<g><path style="opacity:1" fill="#42597c" d="M 296.5,31.5 C 296.5,41.5 296.5,51.5 296.5,61.5C 294.833,61.5 293.167,61.5 291.5,61.5C 291.5,51.5 291.5,41.5 291.5,31.5C 293.167,31.5 294.833,31.5 296.5,31.5 Z"/></g>
<g><path style="opacity:1" fill="#475d80" d="M 370.5,31.5 C 372.167,31.5 373.833,31.5 375.5,31.5C 375.5,41.5 375.5,51.5 375.5,61.5C 373.234,61.8588 371.401,61.1922 370,59.5C 362.719,63.2989 357.052,61.6323 353,54.5C 352.057,41.4742 357.724,37.1409 370,41.5C 370.498,38.1832 370.665,34.8499 370.5,31.5 Z"/></g>
<g><path style="opacity:1" fill="#a3adbf" d="M 370.5,31.5 C 372.265,30.5386 374.265,30.2053 376.5,30.5C 376.828,41.0135 376.494,51.3468 375.5,61.5C 375.5,51.5 375.5,41.5 375.5,31.5C 373.833,31.5 372.167,31.5 370.5,31.5 Z"/></g>
<g><path style="opacity:1" fill="#4c6083" d="M 55.5,32.5 C 59.1817,32.3347 62.8484,32.5014 66.5,33C 71.0359,34.0241 71.7026,36.1908 68.5,39.5C 64.701,37.5776 60.701,37.0776 56.5,38C 55.1667,39.6667 55.1667,41.3333 56.5,43C 61.9179,43.9608 66.7512,46.1274 71,49.5C 72.7575,55.1497 70.9242,58.983 65.5,61C 59.3323,62.3544 53.6656,61.3544 48.5,58C 49.1552,56.5134 50.1552,55.3467 51.5,54.5C 55.8888,56.6561 60.3888,56.9895 65,55.5C 65.7805,54.0563 65.6139,52.723 64.5,51.5C 58.9502,50.5773 54.1169,48.244 50,44.5C 48.3748,38.757 50.2081,34.757 55.5,32.5 Z"/></g>
<g><path style="opacity:1" fill="#495e81" d="M 209.5,32.5 C 216.74,31.3685 221.906,34.0352 225,40.5C 226.693,47.8444 225.193,54.3444 220.5,60C 205.578,63.0792 199.411,56.9126 202,41.5C 203.642,37.6997 206.142,34.6997 209.5,32.5 Z"/></g>
<g><path style="opacity:1" fill="#4e6284" d="M 184.5,32.5 C 188.5,32.5 192.5,32.5 196.5,32.5C 196.5,42.1667 196.5,51.8333 196.5,61.5C 194.5,61.5 192.5,61.5 190.5,61.5C 190.5,53.5 190.5,45.5 190.5,37.5C 188.5,37.5 186.5,37.5 184.5,37.5C 184.5,35.8333 184.5,34.1667 184.5,32.5 Z"/></g>
<g><path style="opacity:1" fill="#4d6284" d="M 230.5,32.5 C 232.5,32.5 234.5,32.5 236.5,32.5C 236.334,39.175 236.5,45.8417 237,52.5C 239.981,56.6959 243.814,57.5293 248.5,55C 249.126,54.2496 249.626,53.4162 250,52.5C 250.5,45.8417 250.666,39.175 250.5,32.5C 252.5,32.5 254.5,32.5 256.5,32.5C 256.896,40.253 256.396,47.9196 255,55.5C 252.425,60.1474 248.425,62.1474 243,61.5C 238.159,61.6604 234.492,59.6604 232,55.5C 230.604,47.9196 230.104,40.253 230.5,32.5 Z"/></g>
<g><path style="opacity:1" fill="#455b7e" d="M 77.5,34.5 C 79.1667,34.5 80.8333,34.5 82.5,34.5C 82.5,36.1667 82.5,37.8333 82.5,39.5C 84.5,39.5 86.5,39.5 88.5,39.5C 88.5,40.8333 88.5,42.1667 88.5,43.5C 86.5,43.5 84.5,43.5 82.5,43.5C 82.3345,47.5138 82.5012,51.5138 83,55.5C 84.4976,57.6138 86.3309,58.1138 88.5,57C 90.0201,60.6593 88.6868,62.1593 84.5,61.5C 81.6753,61.8809 79.5087,60.8809 78,58.5C 77.6667,53.8333 77.3333,49.1667 77,44.5C 75.9887,43.6634 74.8221,43.33 73.5,43.5C 73.5,42.1667 73.5,40.8333 73.5,39.5C 74.8333,39.5 76.1667,39.5 77.5,39.5C 77.5,37.8333 77.5,36.1667 77.5,34.5 Z"/></g>
<g><path style="opacity:1" fill="#f9fafb" d="M 210.5,37.5 C 214.49,36.6155 217.323,37.9489 219,41.5C 219.667,45.1667 219.667,48.8333 219,52.5C 217.309,56.2127 214.475,57.3794 210.5,56C 209.299,55.0975 208.465,53.9308 208,52.5C 206.776,47.0435 207.609,42.0435 210.5,37.5 Z"/></g>
<g><path style="opacity:1" fill="#4e6284" d="M 93.5,39.5 C 95.5,39.5 97.5,39.5 99.5,39.5C 99.3341,44.5111 99.5007,49.5111 100,54.5C 103.345,57.387 106.345,57.0536 109,53.5C 109.499,48.8452 109.666,44.1785 109.5,39.5C 111.5,39.5 113.5,39.5 115.5,39.5C 115.5,46.8333 115.5,54.1667 115.5,61.5C 113.179,61.7711 111.179,61.1045 109.5,59.5C 102.843,63.2054 97.676,61.872 94,55.5C 93.5006,50.1771 93.334,44.8437 93.5,39.5 Z"/></g>
<g><path style="opacity:1" fill="#506485" d="M 149.5,39.5 C 151.5,39.5 153.5,39.5 155.5,39.5C 155.5,46.8333 155.5,54.1667 155.5,61.5C 153.5,61.5 151.5,61.5 149.5,61.5C 149.5,54.1667 149.5,46.8333 149.5,39.5 Z"/></g>
<g><path style="opacity:1" fill="#4a5f81" d="M 166.5,39.5 C 178.656,37.4963 184.156,42.4963 183,54.5C 180.816,59.5091 176.983,61.8424 171.5,61.5C 162.307,60.1506 158.807,54.8172 161,45.5C 162.36,42.9774 164.193,40.9774 166.5,39.5 Z"/></g>
<g><path style="opacity:1" fill="#475d80" d="M 263.5,39.5 C 265.766,39.1412 267.599,39.8078 269,41.5C 273.819,38.8427 278.653,39.0094 283.5,42C 289.469,52.2151 286.802,58.7151 275.5,61.5C 273.074,61.5965 270.907,60.9298 269,59.5C 268.502,62.8168 268.335,66.1501 268.5,69.5C 266.833,69.5 265.167,69.5 263.5,69.5C 263.5,59.5 263.5,49.5 263.5,39.5 Z"/></g>
<g><path style="opacity:1" fill="#485d80" d="M 308.5,39.5 C 323.737,38.8154 328.07,45.3154 321.5,59C 308.396,64.7109 301.896,60.5442 302,46.5C 303.356,43.3142 305.522,40.9809 308.5,39.5 Z"/></g>
<g><path style="opacity:1" fill="#495e81" d="M 331.5,39.5 C 335.182,39.3347 338.848,39.5014 342.5,40C 344.286,40.7845 345.786,41.9512 347,43.5C 347.499,49.4908 347.666,55.4908 347.5,61.5C 342.22,60.9672 336.886,60.8005 331.5,61C 326.167,57 326.167,53 331.5,49C 335.211,48.8253 338.878,48.3253 342.5,47.5C 341.687,46.1861 340.687,45.0195 339.5,44C 336.328,43.5752 333.328,43.9085 330.5,45C 329.643,44.3109 328.977,43.4776 328.5,42.5C 329.77,41.7124 330.77,40.7124 331.5,39.5 Z"/></g>
<g><path style="opacity:1" fill="#495e81" d="M 402.5,46.5 C 402.5,48.1667 402.5,49.8333 402.5,51.5C 396.974,51.1786 391.64,51.5119 386.5,52.5C 386.937,54.0744 387.937,55.2411 389.5,56C 393.092,56.6714 396.426,56.338 399.5,55C 401.781,56.851 401.781,58.5177 399.5,60C 386.714,64.1911 380.548,59.6911 381,46.5C 385.128,39.5114 390.961,37.6781 398.5,41C 400.464,42.451 401.797,44.2843 402.5,46.5 Z"/></g>
<g><path style="opacity:1" fill="#4f6385" d="M 407.5,39.5 C 411.871,40.5376 416.205,40.5376 420.5,39.5C 420.5,41.1667 420.5,42.8333 420.5,44.5C 417.675,44.0807 415.509,45.0807 414,47.5C 413.501,52.1548 413.334,56.8215 413.5,61.5C 411.5,61.5 409.5,61.5 407.5,61.5C 407.5,54.1667 407.5,46.8333 407.5,39.5 Z"/></g>
<g><path style="opacity:1" fill="#f4f5f7" d="M 129.5,43.5 C 136.865,43.7137 139.365,47.3804 137,54.5C 129.201,58.704 125.535,56.3706 126,47.5C 127.376,46.2949 128.542,44.9616 129.5,43.5 Z"/></g>
<g><path style="opacity:1" fill="#f7f8f9" d="M 168.5,44.5 C 176.505,43.3421 179.339,46.6754 177,54.5C 173.667,57.1667 170.333,57.1667 167,54.5C 164.729,50.6965 165.229,47.3632 168.5,44.5 Z"/></g>
<g><path style="opacity:1" fill="#f6f7f9" d="M 272.5,43.5 C 279.369,43.5377 281.869,46.871 280,53.5C 276.333,57.5 272.667,57.5 269,53.5C 268.333,51.5 268.333,49.5 269,47.5C 270.376,46.2949 271.542,44.9616 272.5,43.5 Z"/></g>
<g><path style="opacity:1" fill="#f4f5f7" d="M 309.5,44.5 C 319.267,44.0726 321.6,47.9059 316.5,56C 310.984,57.9246 307.651,56.0913 306.5,50.5C 306.984,48.1992 307.984,46.1992 309.5,44.5 Z"/></g>
<g><path style="opacity:1" fill="#f7f8f9" d="M 362.5,43.5 C 370.89,45.0416 372.557,49.2083 367.5,56C 360.667,57.1667 357.833,54.3333 359,47.5C 359.69,45.6498 360.856,44.3164 362.5,43.5 Z"/></g>
<g><path style="opacity:1" fill="#f3f4f6" d="M 389.5,43.5 C 393.224,42.7731 395.891,44.1064 397.5,47.5C 393.833,48.8333 390.167,48.8333 386.5,47.5C 387.524,46.1482 388.524,44.8149 389.5,43.5 Z"/></g>
<g><path style="opacity:1" fill="#7c8ba4" d="M 402.5,46.5 C 403.461,48.2646 403.795,50.2646 403.5,52.5C 397.833,52.5 392.167,52.5 386.5,52.5C 391.64,51.5119 396.974,51.1786 402.5,51.5C 402.5,49.8333 402.5,48.1667 402.5,46.5 Z"/></g>
<g><path style="opacity:1" fill="#f6f7f9" d="M 334.5,52.5 C 337.167,52.5 339.833,52.5 342.5,52.5C 342.349,55.8496 340.515,57.5163 337,57.5C 333.597,57.1265 332.764,55.4598 334.5,52.5 Z"/></g>
</svg>
